<?xml version="1.0" standalone="no"?>
<!DOCTYPE svg PUBLIC "-//W3C//DTD SVG 20010904//EN" "http://www.w3.org/TR/2001/REC-SVG-20010904/DTD/svg10.dtd">
<svg version="1.0" xmlns="http://www.w3.org/2000/svg" viewBox="0 0 480.000000 480.000000"
 preserveAspectRatio="xMidYMid meet">
<metadata>
Created by potrace 1.15, written by Peter Selinger 2001-2017
</metadata>
<g transform="translate(0.000000,480.000000) scale(0.100000,-0.100000)"
stroke="none">
<path d="M2105 4271 l-68 -168 -56 -13 c-135 -30 -343 -114 -464 -188 l-68
-41 -161 69 c-89 39 -167 70 -173 70 -13 0 -315 -302 -315 -316 0 -5 31 -83
70 -172 l69 -161 -41 -68 c-74 -121 -158 -329 -188 -464 l-13 -56 -168 -68
-169 -67 0 -228 0 -228 169 -67 168 -68 13 -56 c30 -135 114 -343 188 -464
l41 -68 -69 -161 c-39 -89 -70 -167 -70 -173 0 -13 302 -315 316 -315 5 0 83
31 172 70 l161 69 68 -41 c121 -74 329 -158 464 -188 l56 -13 68 -168 67 -169
228 0 228 0 67 169 68 168 56 13 c135 30 343 114 464 188 l68 41 161 -69 c89
-39 167 -70 173 -70 13 0 315 302 315 316 0 5 -31 83 -70 172 l-69 161 41 68
c74 121 158 329 188 464 l13 56 168 68 169 67 0 228 0 228 -169 67 -168 68
-13 56 c-30 135 -114 343 -188 464 l-41 68 69 161 c39 89 70 167 70 173 0 13
-302 315 -316 315 -5 0 -83 -31 -172 -70 l-161 -69 -68 41 c-126 76 -361 170
-484 193 l-36 7 -67 169 -68 169 -228 0 -228 0 -67 -169z m493 -117 l64 -161
67 -13 c161 -31 368 -114 519 -208 46 -29 90 -52 97 -52 7 0 67 23 132 51 65
28 132 57 149 64 l31 13 96 -97 95 -96 -67 -156 -68 -156 63 -103 c84 -136
150 -296 188 -452 l31 -126 160 -64 160 -63 0 -135 0 -135 -160 -63 -160 -64
-31 -127 c-38 -155 -105 -316 -184 -445 -33 -53 -60 -103 -60 -110 0 -7 29
-80 64 -162 l65 -149 -96 -96 -96 -97 -70 30 c-39 17 -110 47 -157 68 l-86 37
-104 -63 c-136 -84 -295 -150 -451 -188 l-127 -31 -64 -160 -64 -160 -134 0
-134 0 -64 160 -64 160 -127 31 c-155 38 -316 105 -445 184 -53 33 -102 60
-109 60 -7 0 -80 -29 -162 -65 l-150 -64 -96 96 -97 96 30 70 c17 39 47 110
68 157 l37 86 -63 104 c-84 137 -150 296 -188 452 l-31 126 -160 64 -160 64 0
134 0 134 160 64 160 64 31 127 c38 154 104 314 184 445 33 54 60 104 60 110
0 11 -17 54 -98 242 l-30 71 97 96 96 96 157 -68 156 -68 103 63 c135 84 295
150 451 188 l126 31 48 120 c26 66 55 139 65 163 l19 43 132 -3 132 -3 64
-161z"/>
</g>
</svg>
