<svg id="svg" 
    xmlns="http://www.w3.org/2000/svg" viewBox="0, 0, 400,400">
    <g id="svgg">
        <path id="path0" d="M250.400 63.111 C 220.900 64.134,193.329 81.213,179.730 106.888 C 178.692 108.848,179.143 108.829,174.522 107.103 C 136.105 92.749,93.899 115.817,84.082 156.533 L 83.600 158.533 80.800 158.725 C 33.466 161.970,3.351 209.136,20.772 252.739 C 23.412 259.346,29.041 268.666,31.467 270.446 C 32.110 270.919,34.564 270.933,101.137 270.868 L 170.141 270.800 153.797 254.885 C 133.047 234.679,132.058 233.664,130.972 231.455 C 128.054 225.519,129.012 218.554,133.399 213.823 C 134.455 212.684,172.288 176.020,179.121 169.513 L 180.243 168.446 182.988 171.016 C 195.902 183.108,197.412 184.913,197.412 188.267 C 197.412 191.465,197.672 191.146,182.479 206.551 C 168.541 220.681,167.931 221.381,167.584 223.641 C 167.100 226.791,165.914 225.406,189.519 249.245 L 210.730 270.667 288.419 270.667 C 347.329 270.667,366.274 270.591,366.795 270.354 C 369.409 269.163,376.389 256.344,379.055 247.839 C 389.907 213.215,369.920 173.618,336.200 162.942 C 335.650 162.768,335.200 162.532,335.200 162.418 C 335.200 162.304,335.463 160.604,335.784 158.639 C 336.502 154.241,336.660 140.650,336.044 136.267 C 329.939 92.853,293.376 61.622,250.400 63.111 M235.978 157.046 C 255.138 175.727,265.439 185.957,266.124 186.983 C 269.869 192.592,269.453 200.400,265.144 205.377 C 264.369 206.271,241.397 228.601,219.014 250.216 L 217.627 251.555 209.724 243.855 C 200.689 235.053,200.671 235.029,200.669 231.600 C 200.666 228.230,200.203 228.800,215.665 213.121 C 230.111 198.473,230.382 198.152,230.394 195.714 C 230.409 192.633,231.479 193.851,207.942 170.168 C 196.081 158.234,186.419 148.343,186.471 148.188 C 186.604 147.789,206.498 128.536,206.703 128.608 C 206.797 128.640,219.970 141.437,235.978 157.046 " stroke="none" fill-rule="evenodd"></path>
        <path id="path1" d="M196.400 158.667 C 197.714 159.987,198.849 161.067,198.922 161.067 C 198.996 161.067,197.981 159.987,196.667 158.667 C 195.353 157.347,194.218 156.267,194.144 156.267 C 194.071 156.267,195.086 157.347,196.400 158.667 M177.727 211.267 L 175.600 213.467 177.800 211.340 C 179.843 209.364,180.122 209.067,179.927 209.067 C 179.887 209.067,178.897 210.057,177.727 211.267 M217.067 211.600 C 215.974 212.700,215.140 213.600,215.213 213.600 C 215.287 213.600,216.241 212.700,217.333 211.600 C 218.426 210.500,219.260 209.600,219.187 209.600 C 219.113 209.600,218.159 210.500,217.067 211.600 M187.600 247.467 C 188.914 248.787,190.049 249.867,190.122 249.867 C 190.196 249.867,189.181 248.787,187.867 247.467 C 186.553 246.147,185.418 245.067,185.344 245.067 C 185.271 245.067,186.286 246.147,187.600 247.467 " stroke="none" fill-rule="evenodd"></path>
        <path id="path2" d="" stroke="none" fill-rule="evenodd"></path>
        <path id="path3" d="" stroke="none" fill-rule="evenodd"></path>
        <path id="path4" d="" stroke="none" fill-rule="evenodd"></path>
    </g>
</svg>